<?xml version="1.0" standalone="no"?>
<!DOCTYPE svg PUBLIC "-//W3C//DTD SVG 20010904//EN"
 "http://www.w3.org/TR/2001/REC-SVG-20010904/DTD/svg10.dtd">
<svg version="1.0" xmlns="http://www.w3.org/2000/svg"
 width="265.000000pt" height="265.000000pt" viewBox="0 0 265.000000 265.000000"
 preserveAspectRatio="xMidYMid meet">
<metadata>
Created by potrace 1.14, written by Peter Selinger 2001-2017
</metadata>
<g transform="translate(0.000000,265.000000) scale(0.100000,-0.100000)"
fill="#000000" stroke="none">
<path d="M624 2379 c-3 -5 -9 -7 -14 -4 -12 8 -60 -57 -51 -70 4 -5 7 -17 6
-25 -1 -28 31 -53 76 -59 8 -1 64 -104 61 -113 -1 -5 3 -8 9 -8 5 0 8 -4 4 -9
-3 -5 -1 -12 4 -15 5 -3 7 -15 4 -26 -3 -11 -9 -18 -13 -15 -4 2 -13 -8 -21
-23 -8 -15 -16 -29 -19 -32 -6 -6 -32 -63 -32 -70 0 -3 -4 -11 -10 -17 -6 -7
-7 -13 -2 -13 5 0 4 -4 -1 -8 -21 -14 -47 -127 -44 -185 2 -31 0 -57 -4 -57
-4 0 -3 -9 3 -20 6 -11 7 -20 2 -20 -12 0 6 -110 21 -129 7 -8 11 -16 9 -18
-1 -2 3 -22 9 -44 11 -34 10 -42 -2 -50 -8 -5 -21 -6 -29 -3 -23 9 -68 13
-147 13 -115 -1 -143 -3 -143 -11 0 -4 -7 -5 -15 -2 -8 4 -15 2 -15 -4 0 -5
-10 -12 -22 -16 -72 -18 -119 -121 -89 -198 11 -29 57 -79 65 -71 3 4 6 1 6
-6 0 -7 4 -10 9 -6 6 3 13 0 18 -7 8 -13 26 -18 71 -20 12 0 22 -4 22 -8 0 -3
20 -6 45 -5 29 2 45 -2 44 -9 -5 -29 51 -113 65 -98 3 3 6 0 6 -7 0 -7 4 -9
10 -6 5 3 10 3 10 -2 0 -4 20 -8 45 -8 25 0 45 3 45 6 0 3 11 5 25 4 14 -2 25
1 25 5 0 5 8 9 18 8 9 0 28 3 42 7 68 18 71 18 63 -1 -3 -11 -10 -21 -14 -24
-7 -5 -33 -49 -76 -128 -13 -24 -21 -48 -18 -53 4 -5 1 -9 -5 -9 -7 0 -8 -6
-1 -19 6 -10 8 -21 5 -24 -9 -9 5 -43 29 -68 20 -21 36 -26 60 -19 4 1 10 3
15 4 4 1 16 7 28 13 31 17 59 10 58 -16 0 -11 2 -21 5 -21 3 0 6 -13 6 -30 0
-16 -3 -30 -6 -30 -9 0 47 -211 58 -219 4 -3 17 -22 27 -41 11 -19 25 -41 32
-48 15 -14 74 -16 74 -2 0 6 4 10 10 10 12 0 60 48 60 60 0 5 6 13 13 17 18
12 66 105 83 165 13 42 18 49 26 35 5 -9 6 -22 3 -27 -3 -6 -2 -10 3 -10 6 0
13 -12 17 -27 21 -86 99 -194 163 -227 28 -14 30 -14 66 22 21 20 37 41 36 46
-1 5 2 12 7 15 11 8 50 98 59 136 8 36 11 60 14 142 3 61 4 62 29 59 14 -2 39
-10 54 -19 43 -23 82 -6 105 46 19 45 14 84 -20 150 -18 34 -35 64 -38 67 -3
3 -14 22 -25 42 -11 21 -24 38 -30 38 -5 0 -3 4 5 10 9 5 19 5 26 0 6 -6 14
-7 17 -3 4 3 13 1 20 -5 8 -7 17 -9 20 -5 4 3 12 2 19 -4 7 -5 23 -8 36 -7 12
0 22 -2 22 -5 0 -11 39 -11 45 0 4 5 12 6 18 2 17 -11 57 -11 63 -1 3 4 10 6
15 3 5 -4 9 -1 9 6 0 7 3 10 6 6 13 -12 55 44 54 71 -3 44 -1 47 26 49 15 0
29 5 33 10 3 5 16 8 29 7 12 -1 22 3 22 8 0 6 7 8 15 4 8 -3 15 0 15 6 0 6 3
9 6 5 17 -16 131 73 119 93 -3 6 -2 10 4 10 13 0 12 91 -1 108 -6 6 -8 12 -5
12 3 0 -9 15 -26 33 -18 19 -34 32 -36 31 -2 -2 -10 1 -18 7 -7 6 -13 8 -13 4
0 -4 -7 -2 -16 5 -22 19 -283 21 -306 2 -11 -9 -18 -10 -23 -2 -3 5 -11 8 -16
5 -5 -4 -17 -8 -27 -10 -15 -3 -18 2 -14 21 2 13 8 24 12 24 5 0 7 8 5 18 -1
9 4 29 12 44 7 15 13 30 13 33 0 3 0 6 1 8 0 1 2 15 4 31 2 15 6 30 9 33 3 3
1 16 -4 29 -6 16 -6 24 1 24 6 0 6 7 -1 20 -6 11 -7 20 -1 20 5 0 6 15 0 38
-4 20 -10 51 -14 69 -3 18 -9 42 -14 55 -5 13 -9 26 -10 30 -3 17 -37 83 -43
86 -5 2 -8 10 -8 18 0 16 -35 70 -62 95 -10 9 -14 20 -9 25 4 5 17 33 27 62
20 58 31 71 65 77 55 11 77 85 38 129 -26 30 -81 35 -113 11 -11 -8 -16 -15
-11 -15 5 0 4 -5 -3 -12 -16 -16 -15 -44 2 -71 13 -20 12 -28 -11 -82 -14 -33
-27 -62 -28 -63 -2 -2 -18 10 -37 26 -42 38 -92 73 -140 95 -20 10 -40 22 -43
27 -4 6 -10 8 -15 5 -5 -3 -31 3 -59 14 -27 10 -52 16 -55 14 -3 -3 -13 -2
-23 2 -33 13 -175 11 -180 -2 -4 -9 -10 -10 -24 -2 -13 7 -19 6 -19 -1 0 -6
-6 -10 -12 -8 -28 5 -163 -50 -203 -84 -11 -9 -26 -18 -34 -20 -8 -2 -31 -20
-50 -40 -34 -37 -61 -49 -61 -28 0 21 -2 25 -16 33 -8 5 -12 12 -9 18 4 5 2 9
-2 9 -15 0 -34 63 -23 74 14 14 12 78 -4 98 -7 10 -16 15 -19 11 -4 -3 -7 -2
-7 4 0 14 -38 24 -46 12z"/>
</g>
</svg>
